<mxfile host="app.diagrams.net" modified="2023-05-10T17:42:30.110Z" agent="Mozilla/5.0 (Windows NT 10.0; Win64; x64) AppleWebKit/537.36 (KHTML, like Gecko) Chrome/112.0.0.0 Safari/537.36" etag="EKSYa-yYZ-EoQmLNEziP" version="21.2.7" type="device">
  <diagram name="Страница 1" id="lzihHljGTT70XeDV7Twb">
    <mxGraphModel dx="1434" dy="756" grid="0" gridSize="10" guides="1" tooltips="1" connect="1" arrows="1" fold="1" page="0" pageScale="1" pageWidth="827" pageHeight="1169" math="0" shadow="0">
      <root>
        <mxCell id="0" />
        <mxCell id="1" parent="0" />
        <mxCell id="rAnxgjCq4pG1K6OVk0EV-2" value="" style="rounded=0;whiteSpace=wrap;html=1;" vertex="1" parent="1">
          <mxGeometry x="168" y="153" width="373" height="445" as="geometry" />
        </mxCell>
        <mxCell id="rAnxgjCq4pG1K6OVk0EV-1" value="Пользователь" style="shape=umlActor;verticalLabelPosition=bottom;verticalAlign=top;html=1;" vertex="1" parent="1">
          <mxGeometry x="73" y="183" width="30" height="60" as="geometry" />
        </mxCell>
        <mxCell id="rAnxgjCq4pG1K6OVk0EV-3" value="&lt;font style=&quot;font-size: 18px;&quot;&gt;Приложение&lt;/font&gt;" style="text;html=1;align=center;verticalAlign=middle;resizable=0;points=[];autosize=1;strokeColor=none;fillColor=none;" vertex="1" parent="1">
          <mxGeometry x="292.5" y="156" width="124" height="34" as="geometry" />
        </mxCell>
        <mxCell id="rAnxgjCq4pG1K6OVk0EV-6" value="Сервер" style="shape=umlActor;verticalLabelPosition=bottom;verticalAlign=top;html=1;" vertex="1" parent="1">
          <mxGeometry x="596" y="521" width="30" height="60" as="geometry" />
        </mxCell>
        <mxCell id="rAnxgjCq4pG1K6OVk0EV-7" value="&lt;font style=&quot;font-size: 14px;&quot;&gt;Обработка &lt;br&gt;изображения&lt;/font&gt;" style="ellipse;whiteSpace=wrap;html=1;" vertex="1" parent="1">
          <mxGeometry x="282" y="340.5" width="140" height="70" as="geometry" />
        </mxCell>
        <mxCell id="rAnxgjCq4pG1K6OVk0EV-10" value="" style="endArrow=none;html=1;rounded=0;entryX=0;entryY=0.5;entryDx=0;entryDy=0;exitX=1;exitY=0.3333333333333333;exitDx=0;exitDy=0;exitPerimeter=0;" edge="1" parent="1" source="rAnxgjCq4pG1K6OVk0EV-1" target="rAnxgjCq4pG1K6OVk0EV-7">
          <mxGeometry width="50" height="50" relative="1" as="geometry">
            <mxPoint x="54" y="507" as="sourcePoint" />
            <mxPoint x="104" y="457" as="targetPoint" />
          </mxGeometry>
        </mxCell>
        <mxCell id="rAnxgjCq4pG1K6OVk0EV-16" style="rounded=0;orthogonalLoop=1;jettySize=auto;html=1;strokeColor=default;dashed=1;" edge="1" parent="1" source="rAnxgjCq4pG1K6OVk0EV-12" target="rAnxgjCq4pG1K6OVk0EV-7">
          <mxGeometry relative="1" as="geometry" />
        </mxCell>
        <mxCell id="rAnxgjCq4pG1K6OVk0EV-18" value="include" style="edgeLabel;html=1;align=center;verticalAlign=middle;resizable=0;points=[];" vertex="1" connectable="0" parent="rAnxgjCq4pG1K6OVk0EV-16">
          <mxGeometry x="0.2131" y="4" relative="1" as="geometry">
            <mxPoint x="-10" y="-5" as="offset" />
          </mxGeometry>
        </mxCell>
        <mxCell id="rAnxgjCq4pG1K6OVk0EV-12" value="&lt;font style=&quot;font-size: 11px;&quot;&gt;Загрузка&lt;br&gt;изображения&lt;/font&gt;" style="ellipse;whiteSpace=wrap;html=1;" vertex="1" parent="1">
          <mxGeometry x="216" y="241" width="100" height="44" as="geometry" />
        </mxCell>
        <mxCell id="rAnxgjCq4pG1K6OVk0EV-13" value="&lt;font style=&quot;font-size: 11px;&quot;&gt;Скачать&lt;br&gt;обработанное&lt;br&gt;изображение&lt;/font&gt;" style="ellipse;whiteSpace=wrap;html=1;" vertex="1" parent="1">
          <mxGeometry x="355" y="222" width="126" height="54" as="geometry" />
        </mxCell>
        <mxCell id="rAnxgjCq4pG1K6OVk0EV-17" style="rounded=0;orthogonalLoop=1;jettySize=auto;html=1;strokeColor=default;dashed=1;entryX=0.452;entryY=1.019;entryDx=0;entryDy=0;entryPerimeter=0;" edge="1" parent="1" source="rAnxgjCq4pG1K6OVk0EV-7" target="rAnxgjCq4pG1K6OVk0EV-13">
          <mxGeometry relative="1" as="geometry">
            <mxPoint x="346" y="283" as="sourcePoint" />
            <mxPoint x="403" y="342" as="targetPoint" />
          </mxGeometry>
        </mxCell>
        <mxCell id="rAnxgjCq4pG1K6OVk0EV-19" value="extend" style="edgeLabel;html=1;align=center;verticalAlign=middle;resizable=0;points=[];" vertex="1" connectable="0" parent="rAnxgjCq4pG1K6OVk0EV-17">
          <mxGeometry x="-0.3804" y="1" relative="1" as="geometry">
            <mxPoint x="-1" y="-12" as="offset" />
          </mxGeometry>
        </mxCell>
        <mxCell id="rAnxgjCq4pG1K6OVk0EV-20" value="" style="endArrow=none;html=1;rounded=0;exitX=1;exitY=0.3333333333333333;exitDx=0;exitDy=0;exitPerimeter=0;" edge="1" parent="1" source="rAnxgjCq4pG1K6OVk0EV-1" target="rAnxgjCq4pG1K6OVk0EV-12">
          <mxGeometry width="50" height="50" relative="1" as="geometry">
            <mxPoint x="121" y="376" as="sourcePoint" />
            <mxPoint x="292" y="386" as="targetPoint" />
          </mxGeometry>
        </mxCell>
        <mxCell id="rAnxgjCq4pG1K6OVk0EV-21" value="" style="endArrow=none;html=1;rounded=0;exitX=1;exitY=0.3333333333333333;exitDx=0;exitDy=0;exitPerimeter=0;" edge="1" parent="1" source="rAnxgjCq4pG1K6OVk0EV-1" target="rAnxgjCq4pG1K6OVk0EV-13">
          <mxGeometry width="50" height="50" relative="1" as="geometry">
            <mxPoint x="121" y="376" as="sourcePoint" />
            <mxPoint x="230" y="294" as="targetPoint" />
          </mxGeometry>
        </mxCell>
        <mxCell id="rAnxgjCq4pG1K6OVk0EV-22" value="&lt;span style=&quot;font-size: 11px;&quot;&gt;Определить&lt;br&gt;тип обработки&lt;br&gt;&lt;/span&gt;" style="ellipse;whiteSpace=wrap;html=1;" vertex="1" parent="1">
          <mxGeometry x="186" y="510" width="100" height="44" as="geometry" />
        </mxCell>
        <mxCell id="rAnxgjCq4pG1K6OVk0EV-23" value="&lt;span style=&quot;font-size: 11px;&quot;&gt;Обработать изображение&lt;br&gt;&lt;/span&gt;" style="ellipse;whiteSpace=wrap;html=1;" vertex="1" parent="1">
          <mxGeometry x="292.5" y="470" width="100" height="44" as="geometry" />
        </mxCell>
        <mxCell id="rAnxgjCq4pG1K6OVk0EV-24" value="&lt;span style=&quot;font-size: 11px;&quot;&gt;Вернуть результат&lt;br&gt;&lt;/span&gt;" style="ellipse;whiteSpace=wrap;html=1;" vertex="1" parent="1">
          <mxGeometry x="409" y="457" width="100" height="44" as="geometry" />
        </mxCell>
        <mxCell id="rAnxgjCq4pG1K6OVk0EV-26" style="rounded=0;orthogonalLoop=1;jettySize=auto;html=1;strokeColor=default;dashed=1;entryX=0.414;entryY=0.979;entryDx=0;entryDy=0;entryPerimeter=0;" edge="1" parent="1" source="rAnxgjCq4pG1K6OVk0EV-22" target="rAnxgjCq4pG1K6OVk0EV-7">
          <mxGeometry relative="1" as="geometry">
            <mxPoint x="238" y="402" as="sourcePoint" />
            <mxPoint x="295" y="461" as="targetPoint" />
          </mxGeometry>
        </mxCell>
        <mxCell id="rAnxgjCq4pG1K6OVk0EV-27" value="include" style="edgeLabel;html=1;align=center;verticalAlign=middle;resizable=0;points=[];" vertex="1" connectable="0" parent="rAnxgjCq4pG1K6OVk0EV-26">
          <mxGeometry x="0.2131" y="4" relative="1" as="geometry">
            <mxPoint x="-10" y="-5" as="offset" />
          </mxGeometry>
        </mxCell>
        <mxCell id="rAnxgjCq4pG1K6OVk0EV-28" style="rounded=0;orthogonalLoop=1;jettySize=auto;html=1;strokeColor=default;dashed=1;" edge="1" parent="1" source="rAnxgjCq4pG1K6OVk0EV-23" target="rAnxgjCq4pG1K6OVk0EV-7">
          <mxGeometry relative="1" as="geometry">
            <mxPoint x="271" y="486" as="sourcePoint" />
            <mxPoint x="352" y="421" as="targetPoint" />
          </mxGeometry>
        </mxCell>
        <mxCell id="rAnxgjCq4pG1K6OVk0EV-29" value="include" style="edgeLabel;html=1;align=center;verticalAlign=middle;resizable=0;points=[];" vertex="1" connectable="0" parent="rAnxgjCq4pG1K6OVk0EV-28">
          <mxGeometry x="0.2131" y="4" relative="1" as="geometry">
            <mxPoint x="-10" y="-5" as="offset" />
          </mxGeometry>
        </mxCell>
        <mxCell id="rAnxgjCq4pG1K6OVk0EV-30" style="rounded=0;orthogonalLoop=1;jettySize=auto;html=1;strokeColor=default;dashed=1;" edge="1" parent="1" source="rAnxgjCq4pG1K6OVk0EV-24" target="rAnxgjCq4pG1K6OVk0EV-7">
          <mxGeometry relative="1" as="geometry">
            <mxPoint x="385" y="467" as="sourcePoint" />
            <mxPoint x="464" y="400" as="targetPoint" />
          </mxGeometry>
        </mxCell>
        <mxCell id="rAnxgjCq4pG1K6OVk0EV-31" value="include" style="edgeLabel;html=1;align=center;verticalAlign=middle;resizable=0;points=[];" vertex="1" connectable="0" parent="rAnxgjCq4pG1K6OVk0EV-30">
          <mxGeometry x="0.2131" y="4" relative="1" as="geometry">
            <mxPoint x="-10" y="-5" as="offset" />
          </mxGeometry>
        </mxCell>
        <mxCell id="rAnxgjCq4pG1K6OVk0EV-32" value="" style="endArrow=none;html=1;rounded=0;entryX=0;entryY=0.3333333333333333;entryDx=0;entryDy=0;entryPerimeter=0;" edge="1" parent="1" source="rAnxgjCq4pG1K6OVk0EV-22" target="rAnxgjCq4pG1K6OVk0EV-6">
          <mxGeometry width="50" height="50" relative="1" as="geometry">
            <mxPoint x="432" y="386" as="sourcePoint" />
            <mxPoint x="608" y="362" as="targetPoint" />
          </mxGeometry>
        </mxCell>
        <mxCell id="rAnxgjCq4pG1K6OVk0EV-33" value="" style="endArrow=none;html=1;rounded=0;entryX=0;entryY=0.3333333333333333;entryDx=0;entryDy=0;entryPerimeter=0;" edge="1" parent="1" source="rAnxgjCq4pG1K6OVk0EV-23" target="rAnxgjCq4pG1K6OVk0EV-6">
          <mxGeometry width="50" height="50" relative="1" as="geometry">
            <mxPoint x="442" y="396" as="sourcePoint" />
            <mxPoint x="607" y="362" as="targetPoint" />
          </mxGeometry>
        </mxCell>
        <mxCell id="rAnxgjCq4pG1K6OVk0EV-34" value="" style="endArrow=none;html=1;rounded=0;entryX=0;entryY=0.3333333333333333;entryDx=0;entryDy=0;entryPerimeter=0;" edge="1" parent="1" source="rAnxgjCq4pG1K6OVk0EV-24" target="rAnxgjCq4pG1K6OVk0EV-6">
          <mxGeometry width="50" height="50" relative="1" as="geometry">
            <mxPoint x="452" y="406" as="sourcePoint" />
            <mxPoint x="645" y="392" as="targetPoint" />
          </mxGeometry>
        </mxCell>
      </root>
    </mxGraphModel>
  </diagram>
</mxfile>
